<mxfile host="app.diagrams.net" agent="Mozilla/5.0 (Windows NT 10.0; Win64; x64) AppleWebKit/537.36 (KHTML, like Gecko) Chrome/141.0.0.0 Safari/537.36" version="28.2.8">
  <diagram name="Página-1" id="lP2ZafSnqQoLuF3u9qEY">
    <mxGraphModel dx="1226" dy="675" grid="1" gridSize="10" guides="1" tooltips="1" connect="1" arrows="1" fold="1" page="1" pageScale="1" pageWidth="827" pageHeight="1169" math="0" shadow="0">
      <root>
        <mxCell id="0" />
        <mxCell id="1" parent="0" />
        <mxCell id="IwKtKkni_0pQ0qWfJJNX-11" style="edgeStyle=orthogonalEdgeStyle;rounded=0;orthogonalLoop=1;jettySize=auto;html=1;dashed=1;" edge="1" parent="1" source="IwKtKkni_0pQ0qWfJJNX-8" target="IwKtKkni_0pQ0qWfJJNX-9">
          <mxGeometry relative="1" as="geometry" />
        </mxCell>
        <mxCell id="IwKtKkni_0pQ0qWfJJNX-13" style="edgeStyle=orthogonalEdgeStyle;rounded=0;orthogonalLoop=1;jettySize=auto;html=1;entryX=0;entryY=0.5;entryDx=0;entryDy=0;dashed=1;" edge="1" parent="1" source="IwKtKkni_0pQ0qWfJJNX-8" target="IwKtKkni_0pQ0qWfJJNX-12">
          <mxGeometry relative="1" as="geometry" />
        </mxCell>
        <mxCell id="IwKtKkni_0pQ0qWfJJNX-8" value="MainApp" style="rounded=0;whiteSpace=wrap;html=1;" vertex="1" parent="1">
          <mxGeometry x="177" y="250" width="120" height="60" as="geometry" />
        </mxCell>
        <mxCell id="IwKtKkni_0pQ0qWfJJNX-16" style="edgeStyle=orthogonalEdgeStyle;rounded=0;orthogonalLoop=1;jettySize=auto;html=1;dashed=1;" edge="1" parent="1" source="IwKtKkni_0pQ0qWfJJNX-9" target="IwKtKkni_0pQ0qWfJJNX-14">
          <mxGeometry relative="1" as="geometry" />
        </mxCell>
        <mxCell id="IwKtKkni_0pQ0qWfJJNX-17" style="edgeStyle=orthogonalEdgeStyle;rounded=0;orthogonalLoop=1;jettySize=auto;html=1;entryX=0.5;entryY=0;entryDx=0;entryDy=0;dashed=1;" edge="1" parent="1" source="IwKtKkni_0pQ0qWfJJNX-9" target="IwKtKkni_0pQ0qWfJJNX-15">
          <mxGeometry relative="1" as="geometry" />
        </mxCell>
        <mxCell id="IwKtKkni_0pQ0qWfJJNX-9" value="SocialMediaFactory" style="rounded=0;whiteSpace=wrap;html=1;" vertex="1" parent="1">
          <mxGeometry x="177" y="360" width="120" height="60" as="geometry" />
        </mxCell>
        <mxCell id="IwKtKkni_0pQ0qWfJJNX-30" style="edgeStyle=orthogonalEdgeStyle;rounded=0;orthogonalLoop=1;jettySize=auto;html=1;entryX=0;entryY=0.5;entryDx=0;entryDy=0;dashed=1;" edge="1" parent="1" source="IwKtKkni_0pQ0qWfJJNX-12" target="IwKtKkni_0pQ0qWfJJNX-26">
          <mxGeometry relative="1" as="geometry" />
        </mxCell>
        <mxCell id="IwKtKkni_0pQ0qWfJJNX-31" style="edgeStyle=orthogonalEdgeStyle;rounded=0;orthogonalLoop=1;jettySize=auto;html=1;entryX=0;entryY=0.5;entryDx=0;entryDy=0;dashed=1;" edge="1" parent="1" source="IwKtKkni_0pQ0qWfJJNX-12" target="IwKtKkni_0pQ0qWfJJNX-25">
          <mxGeometry relative="1" as="geometry">
            <mxPoint x="530" y="360" as="targetPoint" />
          </mxGeometry>
        </mxCell>
        <mxCell id="IwKtKkni_0pQ0qWfJJNX-32" style="edgeStyle=orthogonalEdgeStyle;rounded=0;orthogonalLoop=1;jettySize=auto;html=1;entryX=0;entryY=0.5;entryDx=0;entryDy=0;dashed=1;" edge="1" parent="1" source="IwKtKkni_0pQ0qWfJJNX-12" target="IwKtKkni_0pQ0qWfJJNX-24">
          <mxGeometry relative="1" as="geometry" />
        </mxCell>
        <mxCell id="IwKtKkni_0pQ0qWfJJNX-33" style="edgeStyle=orthogonalEdgeStyle;rounded=0;orthogonalLoop=1;jettySize=auto;html=1;entryX=0;entryY=0.5;entryDx=0;entryDy=0;dashed=1;" edge="1" parent="1" source="IwKtKkni_0pQ0qWfJJNX-12" target="IwKtKkni_0pQ0qWfJJNX-28">
          <mxGeometry relative="1" as="geometry" />
        </mxCell>
        <mxCell id="IwKtKkni_0pQ0qWfJJNX-12" value="InterfaceMidiaSocial" style="rounded=0;whiteSpace=wrap;html=1;" vertex="1" parent="1">
          <mxGeometry x="360" y="360" width="120" height="60" as="geometry" />
        </mxCell>
        <mxCell id="IwKtKkni_0pQ0qWfJJNX-22" style="edgeStyle=orthogonalEdgeStyle;rounded=0;orthogonalLoop=1;jettySize=auto;html=1;entryX=0.5;entryY=0;entryDx=0;entryDy=0;endArrow=open;endFill=0;" edge="1" parent="1" source="IwKtKkni_0pQ0qWfJJNX-14" target="IwKtKkni_0pQ0qWfJJNX-21">
          <mxGeometry relative="1" as="geometry" />
        </mxCell>
        <mxCell id="IwKtKkni_0pQ0qWfJJNX-14" value="InstagramAdapter" style="rounded=0;whiteSpace=wrap;html=1;" vertex="1" parent="1">
          <mxGeometry x="120" y="470" width="120" height="60" as="geometry" />
        </mxCell>
        <mxCell id="IwKtKkni_0pQ0qWfJJNX-19" style="edgeStyle=orthogonalEdgeStyle;rounded=0;orthogonalLoop=1;jettySize=auto;html=1;exitX=0;exitY=1;exitDx=0;exitDy=0;entryX=0.5;entryY=1;entryDx=0;entryDy=0;endArrow=block;endFill=0;dashed=1;" edge="1" parent="1" source="IwKtKkni_0pQ0qWfJJNX-15" target="IwKtKkni_0pQ0qWfJJNX-12">
          <mxGeometry relative="1" as="geometry" />
        </mxCell>
        <mxCell id="IwKtKkni_0pQ0qWfJJNX-23" style="edgeStyle=orthogonalEdgeStyle;rounded=0;orthogonalLoop=1;jettySize=auto;html=1;entryX=0.5;entryY=0;entryDx=0;entryDy=0;endArrow=open;endFill=0;" edge="1" parent="1" source="IwKtKkni_0pQ0qWfJJNX-15" target="IwKtKkni_0pQ0qWfJJNX-20">
          <mxGeometry relative="1" as="geometry" />
        </mxCell>
        <mxCell id="IwKtKkni_0pQ0qWfJJNX-15" value="TwitterAdapter" style="rounded=0;whiteSpace=wrap;html=1;" vertex="1" parent="1">
          <mxGeometry x="240" y="470" width="120" height="60" as="geometry" />
        </mxCell>
        <mxCell id="IwKtKkni_0pQ0qWfJJNX-20" value="TwitterApi" style="rounded=0;whiteSpace=wrap;html=1;" vertex="1" parent="1">
          <mxGeometry x="240" y="580" width="120" height="60" as="geometry" />
        </mxCell>
        <mxCell id="IwKtKkni_0pQ0qWfJJNX-21" value="InstagramApi" style="rounded=0;whiteSpace=wrap;html=1;" vertex="1" parent="1">
          <mxGeometry x="120" y="580" width="120" height="60" as="geometry" />
        </mxCell>
        <mxCell id="IwKtKkni_0pQ0qWfJJNX-36" style="edgeStyle=orthogonalEdgeStyle;rounded=0;orthogonalLoop=1;jettySize=auto;html=1;endArrow=none;endFill=0;" edge="1" parent="1" source="IwKtKkni_0pQ0qWfJJNX-24">
          <mxGeometry relative="1" as="geometry">
            <mxPoint x="680" y="480" as="targetPoint" />
          </mxGeometry>
        </mxCell>
        <mxCell id="IwKtKkni_0pQ0qWfJJNX-24" value="Publicação" style="rounded=0;whiteSpace=wrap;html=1;" vertex="1" parent="1">
          <mxGeometry x="537" y="390" width="120" height="60" as="geometry" />
        </mxCell>
        <mxCell id="IwKtKkni_0pQ0qWfJJNX-35" style="edgeStyle=orthogonalEdgeStyle;rounded=0;orthogonalLoop=1;jettySize=auto;html=1;endArrow=none;endFill=0;" edge="1" parent="1" source="IwKtKkni_0pQ0qWfJJNX-25">
          <mxGeometry relative="1" as="geometry">
            <mxPoint x="680" y="430" as="targetPoint" />
          </mxGeometry>
        </mxCell>
        <mxCell id="IwKtKkni_0pQ0qWfJJNX-25" value="Estatisticas" style="rounded=0;whiteSpace=wrap;html=1;" vertex="1" parent="1">
          <mxGeometry x="537" y="330" width="120" height="60" as="geometry" />
        </mxCell>
        <mxCell id="IwKtKkni_0pQ0qWfJJNX-26" value="Conteudo" style="rounded=0;whiteSpace=wrap;html=1;" vertex="1" parent="1">
          <mxGeometry x="537" y="270" width="120" height="60" as="geometry" />
        </mxCell>
        <mxCell id="IwKtKkni_0pQ0qWfJJNX-37" style="edgeStyle=orthogonalEdgeStyle;rounded=0;orthogonalLoop=1;jettySize=auto;html=1;endArrow=none;endFill=0;" edge="1" parent="1" source="IwKtKkni_0pQ0qWfJJNX-28">
          <mxGeometry relative="1" as="geometry">
            <mxPoint x="680" y="480" as="targetPoint" />
          </mxGeometry>
        </mxCell>
        <mxCell id="IwKtKkni_0pQ0qWfJJNX-28" value="RespostaApi" style="rounded=0;whiteSpace=wrap;html=1;" vertex="1" parent="1">
          <mxGeometry x="537" y="450" width="120" height="60" as="geometry" />
        </mxCell>
      </root>
    </mxGraphModel>
  </diagram>
</mxfile>
